<?xml version="1.0" encoding="utf-8"?>
<!-- Generator: Adobe Illustrator 16.0.0, SVG Export Plug-In . SVG Version: 6.00 Build 0)  -->
<svg version="1.2" baseProfile="tiny" id="Layer_1" xmlns="http://www.w3.org/2000/svg" xmlns:xlink="http://www.w3.org/1999/xlink"
	 x="0px" y="0px" width="175.749px" height="127.559px" viewBox="0 0 175.749 127.559" xml:space="preserve">
<g>
	<g>
		<path fill="#FFFFFF" d="M167.579,127.559H8.169c-5.994,0-8.169-4.886-8.169-8.169V8.169C0,2.175,4.886,0,8.169,0h159.409
			c5.994,0,8.17,4.886,8.17,8.169V119.39C175.749,125.383,170.863,127.559,167.579,127.559z M8.187,5C6.993,5.027,5,5.478,5,8.169
			V119.39c0.026,1.167,0.472,3.169,3.169,3.169h159.409c1.168-0.025,3.17-0.472,3.17-3.169V8.169C170.723,7.001,170.276,5,167.579,5
			H8.187z"/>
	</g>
</g>
<g>
	<path fill="#FFFFFF" d="M17.955,17.346h3.588v6.072h6.969v-6.072H32.1V33.63h-3.588v-7.038h-6.969v7.038h-3.588V17.346z"/>
	<path fill="#FFFFFF" d="M40.886,17.346h2.967l7.084,16.284h-4.048l-1.403-3.45h-6.325l-1.357,3.45h-3.956L40.886,17.346z
		 M42.266,22.084l-1.978,5.06h3.979L42.266,22.084z"/>
	<path fill="#FFFFFF" d="M49.419,17.346h4.094l4.025,10.672h0.046l4.094-10.672h3.841L58.803,33.63h-2.875L49.419,17.346z"/>
	<path fill="#FFFFFF" d="M67.359,17.346h11.063v3.313h-7.475v3.036h7.061v3.312h-7.061v3.313h7.889v3.312H67.359V17.346z"/>
	<path fill="#FFFFFF" d="M81.848,17.346h6.303c0.828,0,1.613,0.081,2.357,0.241c0.743,0.161,1.395,0.43,1.955,0.806
		c0.56,0.376,1.004,0.882,1.334,1.518c0.329,0.637,0.494,1.431,0.494,2.381c0,1.149-0.299,2.127-0.896,2.933
		c-0.599,0.805-1.473,1.314-2.622,1.529l4.14,6.877h-4.301l-3.404-6.509h-1.771v6.509h-3.588V17.346z M85.437,24.085h2.116
		c0.322,0,0.663-0.012,1.023-0.034c0.36-0.023,0.687-0.093,0.978-0.207c0.291-0.115,0.533-0.296,0.725-0.541s0.288-0.59,0.288-1.035
		c0-0.414-0.085-0.743-0.253-0.988c-0.169-0.245-0.384-0.434-0.645-0.563c-0.261-0.131-0.56-0.219-0.896-0.265
		c-0.338-0.046-0.667-0.069-0.989-0.069h-2.346V24.085z"/>
	<path fill="#FFFFFF" d="M96.959,17.346h3.589V33.63h-3.589V17.346z"/>
	<path fill="#FFFFFF" d="M103.998,17.346h4.876l6.923,11.316h0.046V17.346h3.588V33.63h-4.691l-7.107-11.592h-0.046V33.63h-3.588
		V17.346z"/>
	<path fill="#FFFFFF" d="M137.624,32.48c-1.059,0.553-2.162,0.951-3.313,1.196c-1.149,0.245-2.322,0.368-3.519,0.368
		c-1.273,0-2.446-0.199-3.52-0.598c-1.073-0.399-2.001-0.97-2.782-1.714c-0.782-0.743-1.392-1.645-1.829-2.702
		c-0.437-1.059-0.655-2.239-0.655-3.542c0-1.304,0.219-2.484,0.655-3.542c0.438-1.059,1.047-1.959,1.829-2.703
		c0.781-0.743,1.709-1.314,2.782-1.713c1.073-0.399,2.246-0.599,3.52-0.599c1.303,0,2.503,0.157,3.6,0.472
		c1.096,0.314,2.059,0.855,2.887,1.621l-2.53,2.761c-0.491-0.506-1.043-0.89-1.656-1.15s-1.38-0.391-2.3-0.391
		c-0.767,0-1.461,0.13-2.082,0.391c-0.62,0.261-1.153,0.625-1.598,1.093c-0.445,0.468-0.786,1.023-1.024,1.667
		c-0.237,0.645-0.356,1.342-0.356,2.094c0,0.767,0.119,1.468,0.356,2.104c0.238,0.636,0.579,1.188,1.024,1.655
		c0.444,0.468,0.978,0.832,1.598,1.093c0.621,0.261,1.315,0.391,2.082,0.391c0.782,0,1.456-0.088,2.023-0.264
		c0.567-0.177,1.02-0.356,1.357-0.541v-2.645h-2.921V23.97h6.371V32.48z"/>
</g>
<g>
	<path fill="#FFFFFF" d="M28.604,44.579c-0.353-0.43-0.786-0.759-1.3-0.989s-1.108-0.345-1.782-0.345c-0.675,0-1.3,0.13-1.875,0.391
		c-0.575,0.261-1.074,0.625-1.495,1.093c-0.422,0.468-0.751,1.023-0.989,1.667c-0.238,0.645-0.356,1.342-0.356,2.094
		c0,0.767,0.119,1.468,0.356,2.104c0.238,0.636,0.564,1.188,0.978,1.655c0.414,0.468,0.901,0.832,1.461,1.093
		c0.559,0.261,1.161,0.391,1.805,0.391c0.736,0,1.388-0.152,1.955-0.46c0.567-0.306,1.035-0.735,1.403-1.288l2.99,2.231
		c-0.69,0.966-1.564,1.679-2.622,2.139s-2.147,0.69-3.266,0.69c-1.273,0-2.446-0.199-3.519-0.598
		c-1.073-0.399-2.001-0.97-2.783-1.714c-0.782-0.743-1.392-1.645-1.829-2.702c-0.437-1.059-0.655-2.239-0.655-3.542
		c0-1.304,0.218-2.484,0.655-3.542c0.437-1.059,1.046-1.959,1.829-2.703c0.782-0.743,1.709-1.314,2.783-1.713
		c1.073-0.399,2.246-0.599,3.519-0.599c0.46,0,0.939,0.043,1.438,0.127c0.498,0.084,0.989,0.219,1.472,0.402s0.947,0.43,1.392,0.736
		c0.444,0.307,0.843,0.682,1.196,1.127L28.604,44.579z"/>
	<path fill="#FFFFFF" d="M32.399,48.489c0-1.304,0.218-2.484,0.655-3.542c0.437-1.059,1.046-1.959,1.829-2.703
		c0.782-0.743,1.709-1.314,2.783-1.713c1.073-0.399,2.246-0.599,3.519-0.599c1.272,0,2.446,0.199,3.519,0.599
		c1.073,0.398,2.001,0.97,2.783,1.713c0.782,0.744,1.392,1.645,1.829,2.703c0.437,1.058,0.655,2.238,0.655,3.542
		c0,1.303-0.218,2.483-0.655,3.542c-0.437,1.058-1.047,1.959-1.829,2.702c-0.782,0.744-1.71,1.314-2.783,1.714
		c-1.073,0.398-2.247,0.598-3.519,0.598c-1.273,0-2.446-0.199-3.519-0.598c-1.073-0.399-2.001-0.97-2.783-1.714
		c-0.782-0.743-1.392-1.645-1.829-2.702C32.618,50.972,32.399,49.792,32.399,48.489z M36.125,48.489
		c0,0.767,0.119,1.468,0.356,2.104c0.238,0.636,0.579,1.188,1.024,1.655c0.444,0.468,0.978,0.832,1.598,1.093
		c0.621,0.261,1.315,0.391,2.082,0.391s1.46-0.13,2.082-0.391s1.154-0.625,1.599-1.093c0.444-0.467,0.786-1.02,1.023-1.655
		c0.238-0.637,0.356-1.338,0.356-2.104c0-0.752-0.119-1.449-0.356-2.094c-0.238-0.644-0.579-1.199-1.023-1.667
		c-0.445-0.468-0.978-0.832-1.599-1.093s-1.315-0.391-2.082-0.391s-1.46,0.13-2.082,0.391c-0.621,0.261-1.154,0.625-1.598,1.093
		c-0.445,0.468-0.786,1.023-1.024,1.667C36.244,47.04,36.125,47.737,36.125,48.489z"/>
	<path fill="#FFFFFF" d="M52.639,40.346h3.588v12.973h6.647v3.312H52.639V40.346z"/>
	<path fill="#FFFFFF" d="M64.852,40.346h3.588v12.973h6.647v3.312H64.852V40.346z"/>
	<path fill="#FFFFFF" d="M77.064,40.346h11.063v3.313h-7.475v3.036h7.061v3.312h-7.061v3.313h7.889v3.312H77.064V40.346z"/>
	<path fill="#FFFFFF" d="M106.09,55.48c-1.059,0.553-2.162,0.951-3.313,1.196c-1.149,0.245-2.322,0.368-3.519,0.368
		c-1.273,0-2.446-0.199-3.52-0.598c-1.073-0.399-2.001-0.97-2.782-1.714c-0.782-0.743-1.392-1.645-1.829-2.702
		c-0.437-1.059-0.655-2.239-0.655-3.542c0-1.304,0.219-2.484,0.655-3.542c0.438-1.059,1.047-1.959,1.829-2.703
		c0.781-0.743,1.709-1.314,2.782-1.713c1.073-0.399,2.246-0.599,3.52-0.599c1.303,0,2.503,0.157,3.6,0.472
		c1.096,0.314,2.059,0.855,2.887,1.621l-2.53,2.761c-0.491-0.506-1.043-0.89-1.656-1.15s-1.38-0.391-2.3-0.391
		c-0.767,0-1.461,0.13-2.082,0.391c-0.62,0.261-1.153,0.625-1.598,1.093c-0.445,0.468-0.786,1.023-1.024,1.667
		c-0.237,0.645-0.356,1.342-0.356,2.094c0,0.767,0.119,1.468,0.356,2.104c0.238,0.636,0.579,1.188,1.024,1.655
		c0.444,0.468,0.978,0.832,1.598,1.093c0.621,0.261,1.315,0.391,2.082,0.391c0.782,0,1.456-0.088,2.023-0.264
		c0.567-0.177,1.02-0.356,1.357-0.541v-2.645h-2.921V46.97h6.371V55.48z"/>
	<path fill="#FFFFFF" d="M109.449,40.346h11.063v3.313h-7.475v3.036h7.061v3.312h-7.061v3.313h7.889v3.312h-11.477V40.346z"/>
	<path fill="#FFFFFF" d="M131.942,44.326c-0.291-0.368-0.687-0.641-1.185-0.816c-0.498-0.177-0.97-0.265-1.414-0.265
		c-0.261,0-0.529,0.03-0.806,0.092c-0.275,0.062-0.536,0.157-0.781,0.287c-0.246,0.131-0.445,0.304-0.599,0.518
		c-0.153,0.215-0.229,0.476-0.229,0.782c0,0.491,0.184,0.866,0.552,1.127s0.832,0.483,1.392,0.667
		c0.56,0.185,1.161,0.368,1.806,0.552c0.644,0.185,1.245,0.445,1.806,0.782c0.56,0.338,1.023,0.79,1.392,1.357
		c0.367,0.567,0.552,1.326,0.552,2.276c0,0.905-0.169,1.694-0.506,2.369c-0.338,0.675-0.794,1.234-1.369,1.679
		c-0.574,0.445-1.241,0.775-2.001,0.989c-0.759,0.215-1.561,0.322-2.403,0.322c-1.058,0-2.039-0.161-2.944-0.483
		c-0.904-0.321-1.747-0.843-2.529-1.563l2.553-2.807c0.368,0.491,0.832,0.871,1.392,1.139c0.56,0.269,1.139,0.402,1.736,0.402
		c0.291,0,0.587-0.034,0.886-0.104c0.299-0.068,0.567-0.172,0.805-0.31c0.237-0.139,0.43-0.314,0.575-0.529s0.219-0.468,0.219-0.759
		c0-0.491-0.188-0.878-0.563-1.162c-0.376-0.283-0.848-0.524-1.415-0.725c-0.567-0.199-1.181-0.398-1.84-0.598
		s-1.272-0.468-1.84-0.805c-0.567-0.338-1.039-0.782-1.415-1.334c-0.375-0.553-0.563-1.28-0.563-2.186
		c0-0.874,0.173-1.641,0.518-2.3c0.346-0.659,0.806-1.211,1.38-1.656c0.575-0.444,1.238-0.777,1.99-1
		c0.751-0.223,1.525-0.334,2.322-0.334c0.921,0,1.81,0.131,2.669,0.392c0.858,0.261,1.633,0.697,2.322,1.311L131.942,44.326z"/>
</g>
<g>
	<path fill="#FFFFFF" d="M87.2,94.461v-1.167h-5.999v-4.346h5.818v-1.186h-5.818v-4.346H87.2V82.25h-7.255v12.211H87.2z
		 M102.336,95.45l2.837-13.199h-1.275l-1.902,8.871l-3.664-9.59l-3.682,9.59l-1.886-8.871h-1.292l2.854,13.199l4.005-10.631
		L102.336,95.45z M126.112,90.726h-1.383c-0.419,0.79-1.008,1.426-1.768,1.903c-0.761,0.479-1.595,0.719-2.505,0.719
		c-1.338,0-2.485-0.497-3.439-1.49c-0.929-0.967-1.392-2.127-1.392-3.483c0-1.37,0.463-2.536,1.392-3.502
		c0.438-0.456,0.949-0.817,1.535-1.087c0.587-0.27,1.161-0.404,1.724-0.404c0.563,0,1.057,0.063,1.482,0.189
		c1.308,0.387,2.293,1.186,2.953,2.396h1.383c-0.459-1.161-1.202-2.098-2.227-2.81s-2.162-1.069-3.411-1.069
		c-1.692,0-3.136,0.623-4.328,1.868c-0.551,0.575-0.982,1.242-1.293,2.003c-0.312,0.76-0.467,1.564-0.467,2.415
		c0,1.708,0.587,3.175,1.76,4.399c1.192,1.244,2.636,1.867,4.328,1.867c1.244,0,2.387-0.361,3.429-1.086
		C124.917,92.837,125.66,91.894,126.112,90.726 M131.705,82.25h-1.257v12.211h1.257V82.25z M136.006,83.426h2.962V94.47h1.257
		V83.426h2.964v-1.167h-2.964h-1.257h-2.962V83.426z M153.417,88.714l4.615-6.464h-1.599l-3.646,5.226l-3.646-5.226h-1.616
		l4.634,6.467v5.744h1.257V88.714z"/>
	<path fill="#FFFFFF" d="M91.021,105.484h-1.383c-0.42,0.79-1.009,1.425-1.769,1.903s-1.596,0.719-2.505,0.719
		c-1.338,0-2.485-0.498-3.438-1.49c-0.929-0.967-1.393-2.128-1.393-3.484c0-1.368,0.464-2.536,1.393-3.501
		c0.436-0.455,0.948-0.818,1.534-1.086c0.587-0.271,1.161-0.404,1.725-0.404c0.562,0,1.056,0.063,1.48,0.188
		c1.31,0.387,2.294,1.186,2.954,2.397h1.383c-0.459-1.162-1.201-2.099-2.226-2.811c-1.025-0.713-2.162-1.068-3.412-1.068
		c-1.692,0-3.134,0.622-4.328,1.867c-0.551,0.575-0.981,1.242-1.293,2.002c-0.311,0.761-0.467,1.565-0.467,2.415
		c0,1.709,0.587,3.176,1.76,4.399c1.194,1.245,2.636,1.867,4.328,1.867c1.245,0,2.388-0.36,3.429-1.085
		C89.826,107.596,90.568,106.653,91.021,105.484 M104.561,103.078c0,1.389-0.491,2.573-1.474,3.556
		c-0.98,0.981-2.166,1.473-3.555,1.473c-1.377,0-2.556-0.491-3.537-1.473c-0.983-0.982-1.473-2.167-1.473-3.556
		c0-1.378,0.489-2.556,1.473-3.537c0.981-0.982,2.16-1.474,3.537-1.474c1.389,0,2.574,0.491,3.555,1.474
		C104.07,100.522,104.561,101.7,104.561,103.078 M105.818,103.078c0-0.861-0.164-1.677-0.494-2.442
		c-0.329-0.766-0.778-1.431-1.346-1.993c-0.569-0.562-1.237-1.008-2.003-1.338c-0.767-0.329-1.581-0.494-2.442-0.494
		c-0.862,0-1.673,0.165-2.433,0.494c-0.761,0.33-1.425,0.776-1.994,1.338c-0.568,0.563-1.018,1.228-1.348,1.993
		c-0.329,0.766-0.493,1.581-0.493,2.442c0,0.862,0.164,1.676,0.493,2.441c0.33,0.768,0.779,1.436,1.348,2.003
		c0.569,0.569,1.233,1.019,1.994,1.348c0.76,0.328,1.57,0.493,2.433,0.493c0.861,0,1.676-0.165,2.442-0.493
		c0.766-0.329,1.434-0.778,2.003-1.348c0.567-0.567,1.017-1.235,1.346-2.003C105.654,104.753,105.818,103.94,105.818,103.078
		 M110.126,107.963V97.008h-1.256v12.211h0.627h0.629h4.364v-1.256H110.126z M118.35,107.963V97.008h-1.257v12.211h0.629h0.628
		h4.364v-1.256H118.35z M132.573,109.219v-1.167h-5.997v-4.346h5.817v-1.186h-5.817v-4.346h5.997v-1.167h-7.254v12.211H132.573z
		 M147.546,103.509h-6.355v1.095h4.957c-0.362,1.061-0.992,1.908-1.894,2.546c-0.898,0.638-1.902,0.956-3.01,0.956
		c-1.396,0-2.583-0.496-3.561-1.486c-0.979-0.991-1.468-2.178-1.468-3.56c0-1.389,0.49-2.574,1.473-3.556
		c0.981-0.982,2.167-1.473,3.556-1.473c1.046,0,1.995,0.296,2.847,0.884c0.854,0.589,1.473,1.378,1.858,2.366h1.329
		c-0.409-1.347-1.172-2.435-2.291-3.264c-1.117-0.828-2.407-1.242-3.868-1.242c-0.779,0-1.55,0.163-2.317,0.492
		c-0.767,0.33-1.434,0.779-2.003,1.347c-0.567,0.569-1.018,1.236-1.346,2.003c-0.33,0.766-0.494,1.582-0.494,2.451
		c0,0.868,0.164,1.685,0.494,2.45c0.328,0.768,0.778,1.436,1.346,2.003c0.569,0.569,1.236,1.019,2.003,1.348
		c0.768,0.328,1.58,0.493,2.442,0.493c1.48,0,2.815-0.479,4.001-1.436c1.188-0.957,1.913-2.179,2.176-3.665L147.546,103.509z
		 M158.032,109.228v-1.167h-5.998v-4.346h5.818v-1.186h-5.818v-4.346h5.998v-1.167h-7.255v12.211H158.032z"/>
	<path fill="#FFFFFF" d="M66.031,99.672V82.19c-1.547-0.576-3.218-0.893-4.965-0.895h-0.042c-1.648,0.002-3.229,0.283-4.702,0.8
		L66.031,99.672z"/>
	<path fill="#FFFFFF" d="M72.415,86.938V104.2c1.822-2.398,2.904-5.388,2.904-8.632C75.319,92.326,74.237,89.335,72.415,86.938"/>
	<path fill="#FFFFFF" d="M49.675,86.938c-1.821,2.396-2.903,5.384-2.904,8.625v0.011c0.001,3.241,1.083,6.23,2.904,8.625V86.938z"/>
	<path fill="#FFFFFF" d="M56.058,92.518v16.429c1.553,0.579,3.233,0.896,4.987,0.896c1.473,0,2.894-0.223,4.23-0.637L56.058,92.518z
		"/>
</g>
</svg>
